<?xml version="1.0" standalone="no"?>
<!DOCTYPE svg PUBLIC "-//W3C//DTD SVG 20010904//EN"
 "http://www.w3.org/TR/2001/REC-SVG-20010904/DTD/svg10.dtd">
<svg version="1.0" xmlns="http://www.w3.org/2000/svg"
 width="512.000000pt" height="512.000000pt" viewBox="0 0 512.000000 512.000000"
 preserveAspectRatio="xMidYMid meet">

<g transform="translate(0.000000,512.000000) scale(0.100000,-0.100000)"
fill="#38bdf8">
<path  d="M2112 5094 c-87 -43 -100 -69 -164 -322 -31 -123 -58 -225 -60 -226
-2 -1 -50 -21 -108 -45 -58 -23 -116 -47 -130 -53 -22 -9 -42 0 -185 87 -88
54 -182 108 -210 121 -89 42 -175 29 -260 -41 -55 -44 -76 -88 -63 -127 22
-63 79 -64 148 -3 29 26 61 45 74 45 13 0 114 -54 225 -121 111 -66 217 -123
236 -126 25 -4 54 4 122 35 48 22 126 56 173 74 63 24 90 41 105 63 11 18 43
125 74 250 44 181 57 224 78 243 24 22 24 22 393 22 369 0 369 0 393 -22 21
-19 34 -62 78 -243 31 -125 63 -232 74 -250 15 -22 42 -39 105 -63 47 -18 124
-51 171 -73 47 -21 99 -39 115 -39 20 0 97 40 238 125 124 74 220 125 235 125
38 0 561 -523 561 -561 0 -15 -51 -112 -125 -235 -80 -134 -125 -219 -125
-237 0 -16 22 -79 48 -140 27 -62 60 -139 73 -171 13 -32 36 -68 50 -78 14
-11 124 -44 254 -77 184 -46 232 -62 247 -80 17 -22 18 -48 18 -391 0 -343 -1
-369 -18 -391 -15 -18 -63 -34 -247 -80 -130 -33 -240 -66 -254 -77 -14 -10
-37 -46 -50 -78 -13 -32 -46 -109 -73 -171 -26 -61 -48 -124 -48 -140 0 -18
45 -103 125 -237 74 -123 125 -220 125 -235 0 -38 -523 -561 -561 -561 -16 0
-110 50 -234 125 -146 88 -217 125 -239 125 -16 0 -64 -16 -106 -35 -41 -19
-117 -52 -169 -72 -61 -25 -101 -47 -113 -64 -11 -14 -45 -127 -77 -254 -46
-184 -62 -232 -80 -247 -22 -17 -48 -18 -391 -18 -343 0 -369 1 -391 18 -18
15 -34 63 -80 247 -32 128 -66 240 -77 254 -12 16 -50 38 -103 59 -46 18 -124
52 -172 74 -68 31 -97 39 -122 35 -19 -3 -125 -60 -236 -126 -119 -71 -212
-121 -228 -121 -38 0 -561 523 -561 561 0 16 50 109 121 228 66 111 123 217
126 236 4 25 -4 54 -35 122 -22 48 -56 126 -74 173 -24 63 -41 90 -63 105 -18
11 -125 43 -250 74 -181 44 -224 57 -242 78 -23 24 -23 24 -23 393 0 369 0
369 22 393 19 21 62 34 243 78 125 31 232 63 250 74 22 15 39 42 63 105 18 47
52 125 74 173 31 68 39 97 35 122 -3 19 -60 125 -126 236 -68 113 -121 213
-121 227 0 18 31 56 116 143 109 112 115 120 112 155 -4 48 -43 80 -85 70 -39
-10 -247 -220 -273 -277 -25 -55 -25 -131 -1 -184 10 -22 64 -116 121 -210 91
-152 101 -173 92 -195 -6 -14 -30 -72 -53 -130 -24 -58 -44 -106 -45 -108 -1
-2 -103 -29 -226 -60 -253 -64 -279 -77 -322 -164 l-26 -52 0 -396 0 -396 25
-51 c27 -53 67 -90 120 -111 17 -6 119 -34 228 -61 109 -27 199 -51 201 -53 1
-1 22 -50 45 -108 24 -58 48 -116 53 -130 9 -22 -1 -44 -92 -195 -127 -210
-140 -237 -140 -300 0 -93 21 -120 308 -407 287 -287 314 -307 407 -308 63 0
105 20 310 145 142 86 163 96 185 87 96 -39 236 -96 238 -98 2 -2 26 -92 53
-201 27 -109 55 -211 61 -228 21 -53 59 -94 112 -120 l53 -26 404 3 404 3 47
28 c71 42 93 88 153 328 29 116 55 211 57 213 1 1 50 21 108 45 58 23 116 47
130 53 22 9 43 0 195 -92 210 -127 237 -140 301 -140 92 0 126 26 411 313 282
282 303 310 303 402 0 63 -13 90 -140 300 -91 151 -101 173 -92 195 5 14 29
72 53 130 23 58 44 107 45 108 2 2 97 28 213 57 240 60 286 82 328 153 l28 47
0 415 0 415 -27 45 c-47 81 -68 91 -341 159 -109 27 -199 51 -201 53 -1 1 -22
50 -45 108 -24 58 -48 116 -53 130 -9 22 1 44 92 195 127 210 140 237 140 300
0 92 -21 120 -303 402 -285 287 -319 313 -411 313 -64 0 -91 -13 -301 -140
-151 -91 -173 -101 -195 -92 -14 5 -72 29 -130 53 -58 23 -107 44 -108 45 -2
2 -28 98 -57 214 -63 249 -82 290 -164 332 l-53 28 -397 0 -397 0 -52 -26z"/>
<path d="M2390 4649 c-135 -11 -163 -25 -168 -82 -2 -26 3 -42 17 -56 19 -19
29 -20 233 -15 117 3 246 2 285 -3 107 -14 143 6 143 77 0 43 -37 66 -117 73
-141 13 -282 15 -393 6z"/>
<path d="M1293 4227 c-46 -26 -210 -175 -291 -267 -130 -146 -145 -178 -97
-225 40 -41 72 -33 130 32 64 75 243 254 318 318 65 58 73 90 32 130 -26 27
-58 31 -92 12z"/>
<path d="M3735 4215 c-42 -41 -34 -71 38 -135 79 -70 236 -227 307 -308 63
-71 94 -79 135 -37 43 42 34 71 -54 176 -89 106 -162 178 -270 268 -84 69
-116 77 -156 36z"/>
<path d="M1814 3857 c-22 -19 -28 -34 -32 -79 l-4 -56 -77 -4 c-121 -7 -213
-68 -273 -180 l-23 -43 -3 -699 -3 -699 22 -24 c27 -28 68 -30 100 -4 l24 19
3 431 3 431 802 0 c876 0 835 -3 857 56 9 23 13 24 104 24 86 0 95 -2 101 -20
13 -41 45 -60 102 -60 l53 0 0 -389 0 -389 -187 -4 c-182 -3 -190 -4 -244 -31
-66 -32 -132 -99 -162 -165 -19 -42 -22 -69 -25 -234 l-4 -188 -635 0 -635 0
-40 22 c-58 33 -88 90 -88 167 0 52 -4 66 -25 86 -32 33 -74 33 -105 1 -21
-23 -22 -32 -18 -113 3 -73 9 -97 33 -141 33 -60 84 -110 147 -144 l43 -23
935 0 935 0 53 29 c60 34 111 85 144 148 l23 43 0 935 0 935 -23 43 c-60 113
-152 173 -274 180 l-78 5 0 41 c0 51 -17 86 -51 105 -58 32 -109 -16 -109
-104 l0 -45 -155 0 -155 0 0 55 c0 46 -4 60 -25 80 -29 30 -64 32 -98 5 -22
-17 -27 -30 -29 -78 l-3 -57 -155 0 -155 0 -3 57 c-2 48 -7 61 -29 78 -34 27
-69 25 -98 -5 -21 -20 -25 -34 -25 -80 l0 -55 -155 0 -155 0 0 46 c0 98 -64
144 -126 91z m1471 -2017 l-180 -180 -3 97 c-3 107 6 155 40 198 38 49 90 65
213 65 l110 0 -180 -180z m263 -199 c-38 -72 -84 -91 -227 -91 l-116 0 180
180 180 180 3 -112 c2 -101 0 -116 -20 -157z"/>
<path d="M501 2874 c-12 -15 -21 -32 -21 -38 0 -6 -5 -69 -10 -141 -13 -172 2
-409 29 -445 23 -32 82 -39 108 -13 17 17 18 42 17 327 0 290 -1 309 -19 322
-32 23 -81 18 -104 -12z"/>
<path d="M4522 2894 c-29 -13 -39 -57 -31 -129 4 -38 8 -131 8 -205 0 -74 -4
-166 -8 -205 -6 -53 -5 -77 6 -97 23 -47 93 -51 124 -8 46 62 46 558 0 620
-18 24 -68 36 -99 24z"/>
<path d="M2741 2770 c-25 -11 -87 -63 -141 -115 l-96 -95 -34 35 c-125 129
-313 106 -391 -47 -27 -52 -26 -146 2 -201 25 -50 269 -296 319 -323 48 -25
162 -25 210 0 51 27 404 383 429 433 28 55 29 149 2 201 -41 81 -104 123 -196
129 -46 3 -70 -1 -104 -17z m144 -155 c16 -16 25 -35 25 -57 0 -28 -21 -53
-184 -217 -237 -237 -209 -234 -387 -55 -112 113 -129 135 -129 163 0 40 38
81 76 81 19 0 46 -19 98 -69 82 -79 108 -95 139 -85 12 4 81 65 153 135 143
141 163 151 209 104z"/>
<path d="M905 1385 c-47 -46 -33 -79 92 -220 133 -150 294 -285 340 -285 33 0
73 42 73 77 0 21 -14 39 -57 78 -75 64 -254 243 -318 318 -58 65 -90 73 -130
32z"/>
<path d="M4080 1348 c-71 -81 -228 -238 -307 -308 -49 -43 -63 -62 -63 -83 0
-37 41 -77 78 -77 74 0 452 378 452 452 0 37 -40 78 -77 78 -21 0 -40 -14 -83
-62z"/>
<path d="M2258 624 c-47 -25 -51 -94 -8 -125 62 -46 558 -46 620 0 43 31 39
101 -8 124 -21 11 -44 12 -107 5 -79 -9 -426 -5 -455 6 -8 3 -27 -1 -42 -10z"/>
</g>
</svg>
